<?xml version="1.0" encoding="UTF-8" standalone="no"?>
<svg width="119px" height="24px" viewBox="0 0 119 24" version="1.1" xmlns="http://www.w3.org/2000/svg" xmlns:xlink="http://www.w3.org/1999/xlink" xmlns:sketch="http://www.bohemiancoding.com/sketch/ns">
    <!-- Generator: Sketch 3.4.3 (16044) - http://www.bohemiancoding.com/sketch -->
    <title>logo</title>
    <desc>Created with Sketch.</desc>
    <defs></defs>
    <g id="Page-1" stroke="none" stroke-width="1" fill="none" fill-rule="evenodd" sketch:type="MSPage">
        <g id="Desktop-Landscape" sketch:type="MSArtboardGroup" transform="translate(-809.000000, -364.000000)">
            <g id="logo" sketch:type="MSLayerGroup" transform="translate(809.000000, 364.000000)">
                <path d="M2.62757647,24 C2.28875294,24 1.94781176,23.9343529 1.6224,23.8002353 C0.640517647,23.3929412 0.000282352941,22.4350588 0.000282352941,21.372 L0.000282352941,3.21670588 C0.000282352941,1.76470588 1.17628235,0.588 2.62828235,0.588 C4.07957647,0.588 5.25628235,1.76470588 5.25628235,3.21670588 L5.25628235,15.0275294 L9.85863529,10.4244706 C10.8849882,9.39882353 12.5487529,9.39882353 13.5751059,10.4244706 L22.6640471,19.5134118 C23.6904,20.5397647 23.6904,22.2042353 22.6640471,23.2305882 C21.6376941,24.2562353 19.9739294,24.2562353 18.9475765,23.2305882 L11.7172235,15.9995294 L4.48616471,23.2305882 C3.98357647,23.7331765 3.31157647,24 2.62757647,24" id="Fill-1" fill="#EF3828" sketch:type="MSShapeGroup"></path>
                <path d="M93.6567529,13.9777412 C93.6567529,17.7351529 92.0106353,19.5238588 89.1115765,19.5238588 C86.2132235,19.5238588 84.5671059,17.7351529 84.5671059,13.9777412 L84.5671059,1.30927059 L79.9859294,1.30927059 L79.9859294,14.4429176 C79.9859294,20.4909176 83.6367529,23.6398588 89.1115765,23.6398588 C94.6231059,23.6398588 98.2372235,20.4909176 98.2372235,14.4429176 L98.2372235,1.30927059 L93.6567529,1.30927059 L93.6567529,13.9777412 Z M113.131341,10.6135059 L109.123341,9.68315294 C107.476518,9.28997647 106.653459,8.53821176 106.653459,7.28527059 C106.653459,5.71115294 108.049694,4.70950588 110.124988,4.70950588 C112.415576,4.70950588 113.667812,5.85444706 114.168988,7.32197647 L118.713459,7.32197647 C117.997694,3.59985882 115.099341,0.951388235 110.088988,0.951388235 C105.472518,0.951388235 102.180988,3.74244706 102.180988,7.71515294 C102.180988,11.3292706 104.613459,13.0113882 107.763106,13.7271529 L111.699106,14.6215059 C113.596518,15.0513882 114.382871,15.7671529 114.382871,17.0906824 C114.382871,18.8448 112.916047,19.8464471 110.697459,19.8464471 C108.550871,19.8464471 106.940047,18.9520941 106.331576,17.0193882 L101.607812,17.0193882 C102.358871,21.2066824 105.8304,23.6398588 110.732753,23.6398588 C115.385224,23.6398588 118.892047,21.0633882 118.892047,16.8048 C118.892047,13.4765647 116.709459,11.4372706 113.131341,10.6135059 L113.131341,10.6135059 Z M49.3188706,10.0410353 L39.3701647,10.0410353 L39.3701647,1.30927059 L34.7896941,1.30927059 L34.7896941,23.2819765 L39.3701647,23.2819765 L39.3701647,14.0490353 L49.3188706,14.0490353 L49.3188706,23.2819765 L53.8993412,23.2819765 L53.8993412,1.30927059 L49.3188706,1.30927059 L49.3188706,10.0410353 Z M64.8602824,14.1210353 L67.5447529,6.63303529 L70.2285176,14.1210353 L64.8602824,14.1210353 Z M70.4995765,2.95962353 C70.0633412,1.78644706 68.9304,0.948564706 67.5962824,0.948564706 C66.2621647,0.948564706 65.1292235,1.78644706 64.6929882,2.95962353 L56.9162824,23.2819765 L61.4967529,23.2819765 L63.4294588,17.9857412 L71.6600471,17.9857412 L73.6280471,23.2819765 L78.2805176,23.2819765 L70.4995765,2.95962353 Z" id="Fill-3" fill="#313131" sketch:type="MSShapeGroup"></path>
            </g>
        </g>
    </g>
</svg>